<?xml version="1.0" encoding="UTF-8"?>
<svg version="1.1" xmlns="http://www.w3.org/2000/svg" width="252" height="252">
<path d="M0 0 C83.16 0 166.32 0 252 0 C252 83.16 252 166.32 252 252 C168.84 252 85.68 252 0 252 C0 168.84 0 85.68 0 0 Z " fill="#010101" transform="translate(0,0)"/>
<path d="M0 0 C6.17084724 -0.04622357 12.34107967 -0.0859544 18.51196289 -0.10986328 C20.60573374 -0.11984358 22.69949094 -0.13343259 24.79321289 -0.15087891 C47.05684534 -0.33158158 47.05684534 -0.33158158 58 2 C58.72324463 2.14083008 59.44648926 2.28166016 60.19165039 2.42675781 C82.1965489 6.92330291 102.03390881 16.08660218 118 32 C119.28777344 33.28003906 119.28777344 33.28003906 120.6015625 34.5859375 C121.39304688 35.38257813 122.18453125 36.17921875 123 37 C123.56203125 37.56460938 124.1240625 38.12921875 124.703125 38.7109375 C142.36047039 57.70596057 148.65538103 82.77951082 148.5625 108.0625 C148.5620166 108.87537476 148.5615332 109.68824951 148.56103516 110.52575684 C148.50620198 123.81431701 147.17671938 135.63414903 142 148 C141.54246338 149.14202881 141.54246338 149.14202881 141.07568359 150.30712891 C137.00949001 160.29393717 131.93458998 168.71291907 125 177 C124.37609375 177.78632813 123.7521875 178.57265625 123.109375 179.3828125 C105.64310631 200.44507768 75.51767003 213.21643868 48.7061615 215.79502869 C44.55809986 216.10921306 40.4313727 216.12372122 36.2734375 216.09765625 C34.96289902 216.09553383 34.96289902 216.09553383 33.62588501 216.09336853 C30.87555297 216.08783674 28.12530682 216.07529774 25.375 216.0625 C23.49349077 216.05747616 21.61198025 216.05291481 19.73046875 216.04882812 C15.15361348 216.03788979 10.57682123 216.02067362 6 216 C10.75097656 212.16455078 10.75097656 212.16455078 12.9921875 210.68359375 C20.214587 205.90362396 25.44239229 198.28177736 28 190 C28.18923071 187.30902795 28.27992405 184.74818374 28.25 182.0625 C28.26160156 181.02706055 28.26160156 181.02706055 28.2734375 179.97070312 C28.2568881 175.60579982 27.59909381 172.05484502 26 168 C26.87398437 167.88108398 26.87398437 167.88108398 27.765625 167.75976562 C45.98971978 165.16655717 62.6731898 160.84440726 74.73046875 145.84765625 C83.14603044 134.02431156 85.35793796 121.17631608 85.25 106.9375 C85.25773437 105.91333984 85.26546875 104.88917969 85.2734375 103.83398438 C85.23595413 89.16861494 80.58050393 75.66430386 70.2109375 64.95703125 C57.11945125 53.36898424 39.99723983 48.8145582 22.8359375 48.5859375 C21.45881088 48.55688828 21.45881088 48.55688828 20.05386353 48.5272522 C17.16099944 48.46812855 14.26809409 48.42134357 11.375 48.375 C9.39711938 48.33675817 7.41925431 48.29770297 5.44140625 48.2578125 C0.62773252 48.16248356 -4.18601893 48.07820891 -9 48 C-9.02715232 46.40894945 -9.04646486 44.81776392 -9.0625 43.2265625 C-9.07990234 41.8974585 -9.07990234 41.8974585 -9.09765625 40.54150391 C-8.97807464 37.4293926 -8.20461953 34.86097139 -7 32 C-4.69 32.33 -2.38 32.66 0 33 C0 22.11 0 11.22 0 0 Z " fill="#FDFDFD" transform="translate(81,15)"/>
<path d="M0 0 C0.27266408 19.6015177 0.27266408 19.6015177 -2.625 25.0625 C-4.798093 29.70501687 -3.82222142 33.46481728 -2.25 38.3125 C-0.39366008 40.8185589 1.10834392 41.76950805 4 43 C8.27240881 43.57378993 11.84602113 43.45155695 15.875 41.875 C19.6295611 38.56215197 20.85570103 35.37084018 21.375 30.4375 C21.30122211 27.04399636 21.30122211 27.04399636 19.48828125 24.9921875 C17.17930804 20.34999989 17.68514405 15.79153444 17.8125 10.6875 C17.82603516 9.66076172 17.83957031 8.63402344 17.85351562 7.57617188 C17.88876117 5.05024091 17.938033 2.5253934 18 0 C26.92981529 2.7144609 33.25206147 7.95364934 38 16 C41.40593367 22.99180345 42.4128675 30.90068513 40.3203125 38.453125 C39.78388544 39.95512076 39.238654 41.45400861 38.68359375 42.94921875 C37.1012201 47.69633971 37.58446163 51.55179711 39.625 56 C41.14842531 58.80915305 42.87121498 61.12267663 45 63.5 C51.28604664 70.64758602 52.80130813 76.53420422 52.50390625 86.17578125 C51.29696137 95.33546372 46.74631036 102.46426968 39.63671875 108.24609375 C25.80457044 117.44703389 9.69836029 119.34997526 -6.50390625 116.3515625 C-9.18485335 115.43840148 -11.52497518 114.3736591 -14 113 C-14.93972656 112.50242187 -15.87945312 112.00484375 -16.84765625 111.4921875 C-24.92432062 106.81794029 -31.67253662 100.40101646 -34.55859375 91.2890625 C-36.39385089 81.7717113 -35.38501435 74.06412597 -30 66 C-28.24381384 63.61068235 -26.44741249 61.28713431 -24.55078125 59.0078125 C-21.08658813 54.52268589 -20.3076584 50.62903824 -21 45 C-21.46066963 43.57006016 -21.9627491 42.15296326 -22.5 40.75 C-25.03120614 33.72560019 -25.24124431 26.20573933 -22.375 19.25 C-17.96642163 10.72572085 -10.61132088 0 0 0 Z " fill="#FAFAFA" transform="translate(53,114)"/>
<path d="M0 0 C0.74886475 0.00523682 1.49772949 0.01047363 2.26928711 0.01586914 C3.07817383 0.0190918 3.88706055 0.02231445 4.72045898 0.02563477 C5.5705957 0.03401367 6.42073242 0.04239258 7.29663086 0.05102539 C8.15063477 0.05553711 9.00463867 0.06004883 9.88452148 0.06469727 C12.00108749 0.07652166 14.11761771 0.0944577 16.23413086 0.11352539 C16.23413086 2.09352539 16.23413086 4.07352539 16.23413086 6.11352539 C14.25413086 6.44352539 12.27413086 6.77352539 10.23413086 7.11352539 C9.90413086 8.10352539 9.57413086 9.09352539 9.23413086 10.11352539 C12.20413086 10.60852539 12.20413086 10.60852539 15.23413086 11.11352539 C15.23413086 12.43352539 15.23413086 13.75352539 15.23413086 15.11352539 C13.25413086 15.11352539 11.27413086 15.11352539 9.23413086 15.11352539 C9.23413086 16.43352539 9.23413086 17.75352539 9.23413086 19.11352539 C10.88413086 19.11352539 12.53413086 19.11352539 14.23413086 19.11352539 C14.79663086 21.05102539 14.79663086 21.05102539 15.23413086 23.11352539 C14.23413086 24.11352539 14.23413086 24.11352539 11.67163086 24.17602539 C10.86725586 24.15540039 10.06288086 24.13477539 9.23413086 24.11352539 C9.23413086 25.43352539 9.23413086 26.75352539 9.23413086 28.11352539 C10.88413086 28.11352539 12.53413086 28.11352539 14.23413086 28.11352539 C14.35913086 35.86352539 14.35913086 35.86352539 13.23413086 38.11352539 C13.13084173 40.95701444 13.09381781 43.76994691 13.10913086 46.61352539 C13.11203125 47.94661743 13.11203125 47.94661743 13.11499023 49.30664062 C13.15819139 56.2722271 13.42337969 63.21801933 13.73413086 70.17602539 C14.45996783 86.48424533 14.31922909 102.79357489 14.23413086 119.11352539 C9.61413086 119.11352539 4.99413086 119.11352539 0.23413086 119.11352539 C0.23635147 118.09066437 0.23857208 117.06780334 0.24085999 116.01394653 C0.26110221 106.39021261 0.27610823 96.76648298 0.28594303 87.14273262 C0.2911691 82.19467407 0.29826177 77.24663267 0.30957031 72.29858398 C0.32040896 67.52645575 0.32640978 62.75434403 0.3290081 57.98220444 C0.33086058 56.15848404 0.33447782 54.33476457 0.33986092 52.51105118 C0.34708429 49.96332064 0.34812125 47.415659 0.34765625 44.86791992 C0.35125153 44.10834991 0.3548468 43.34877991 0.35855103 42.56619263 C0.42256681 38.71278945 0.42256681 38.71278945 -0.76586914 35.11352539 C-0.80609305 32.78053879 -0.80907161 30.44645874 -0.76586914 28.11352539 C0.88413086 27.78352539 2.53413086 27.45352539 4.23413086 27.11352539 C4.23413086 26.45352539 4.23413086 25.79352539 4.23413086 25.11352539 C2.25413086 24.45352539 0.27413086 23.79352539 -1.76586914 23.11352539 C-1.76586914 21.79352539 -1.76586914 20.47352539 -1.76586914 19.11352539 C-3.74586914 19.11352539 -5.72586914 19.11352539 -7.76586914 19.11352539 C-7.76586914 17.79352539 -7.76586914 16.47352539 -7.76586914 15.11352539 C-6.13985973 15.20052589 -4.51497236 15.30870349 -2.89086914 15.42602539 C-1.98594727 15.4840332 -1.08102539 15.54204102 -0.14868164 15.60180664 C2.23413086 16.11352539 2.23413086 16.11352539 4.23413086 19.11352539 C4.23413086 17.79352539 4.23413086 16.47352539 4.23413086 15.11352539 C2.25413086 15.11352539 0.27413086 15.11352539 -1.76586914 15.11352539 C-2.09586914 13.79352539 -2.42586914 12.47352539 -2.76586914 11.11352539 C-4.41586914 11.11352539 -6.06586914 11.11352539 -7.76586914 11.11352539 C-7.76586914 9.46352539 -7.76586914 7.81352539 -7.76586914 6.11352539 C-6.11586914 6.11352539 -4.46586914 6.11352539 -2.76586914 6.11352539 C-2.78649414 5.30915039 -2.80711914 4.50477539 -2.82836914 3.67602539 C-2.74301107 0.17634455 -2.74301107 0.17634455 0 0 Z " fill="#F5F5F5" transform="translate(54.765869140625,13.886474609375)"/>
<path d="M0 0 C0.33 0 0.66 0 1 0 C1.33 8.25 1.66 16.5 2 25 C5.3 25 8.6 25 12 25 C12.99 25.33 13.98 25.66 15 26 C15 19.4 15 12.8 15 6 C15.99 6.33 16.98 6.66 18 7 C17.98428955 7.64026123 17.9685791 8.28052246 17.95239258 8.94018555 C17.88982885 11.85586631 17.85094192 14.77140555 17.8125 17.6875 C17.78736328 18.69490234 17.76222656 19.70230469 17.73632812 20.74023438 C17.68346989 26.07891572 17.66577042 29.59159852 21 34 C21.78139185 40.02788002 20.4148269 43.20078382 17 48 C13.37389948 51.21168903 9.90063068 51.53086961 5.21484375 51.34375 C1.61524559 50.78508221 -0.35285535 49.45806289 -3 47 C-6.25618329 41.53801512 -6.29972051 37.99871003 -5 32 C-4.34 31.01 -3.68 30.02 -3 29 C-2.54605448 26.72087062 -2.54605448 26.72087062 -2.375 24.3125 C-2.30023438 23.50425781 -2.22546875 22.69601563 -2.1484375 21.86328125 C-2.09945312 21.24839844 -2.05046875 20.63351563 -2 20 C-1.67 20 -1.34 20 -1 20 C-1 22.97 -1 25.94 -1 29 C-0.34 29 0.32 29 1 29 C0.67 28.34 0.34 27.68 0 27 C-0.08527628 24.96767366 -0.10716135 22.93252994 -0.09765625 20.8984375 C-0.09443359 19.68671875 -0.09121094 18.475 -0.08789062 17.2265625 C-0.07951172 15.95554687 -0.07113281 14.68453125 -0.0625 13.375 C-0.05798828 12.09625 -0.05347656 10.8175 -0.04882812 9.5 C-0.03701203 6.33328708 -0.02053815 3.16666644 0 0 Z " fill="#212121" transform="translate(54,107)"/>
<path d="M0 0 C0.72711182 0.00404846 1.45422363 0.00809692 2.20336914 0.01226807 C2.95046143 0.01035461 3.69755371 0.00844116 4.46728516 0.00646973 C6.04761085 0.00510809 7.62794772 0.00880307 9.20825195 0.01715088 C11.63135836 0.02785107 14.05372337 0.01725527 16.47680664 0.00445557 C18.01066245 0.00577717 19.54451779 0.00833957 21.07836914 0.01226807 C21.80548096 0.0082196 22.53259277 0.00417114 23.28173828 0 C28.41094553 0.04796946 28.41094553 0.04796946 30.64086914 2.27789307 C30.82836914 4.84039307 30.82836914 4.84039307 30.64086914 7.27789307 C28.85256466 9.06619755 26.44505762 8.40638018 24.06445312 8.4168396 C23.28529541 8.41481537 22.5061377 8.41279114 21.70336914 8.41070557 C20.51046265 8.41214066 20.51046265 8.41214066 19.29345703 8.41360474 C17.60880454 8.4142865 15.92414943 8.41243249 14.23950195 8.40826416 C11.65187717 8.40291582 9.06442598 8.40820926 6.47680664 8.41461182 C4.84399376 8.41395103 3.21118098 8.41266987 1.57836914 8.41070557 C0.79921143 8.4127298 0.02005371 8.41475403 -0.78271484 8.4168396 C-6.24417981 8.39284411 -6.24417981 8.39284411 -7.35913086 7.27789307 C-7.54663086 4.84039307 -7.54663086 4.84039307 -7.35913086 2.27789307 C-4.87062412 -0.21061367 -3.39703026 0.03176976 0 0 Z " fill="#0A0A0A" transform="translate(50.359130859375,190.72210693359375)"/>
<path d="M0 0 C2.75329021 1.79562405 4.52627461 3.05254922 6 6 C6.43023798 9.87214182 6.31669086 11.52496371 4.125 14.8125 C1.42055063 17.59649199 0.57733296 17.93464155 -3.3125 18.375 C-7 18 -7 18 -9.9375 16.0625 C-12.35365674 12.47487333 -12.7425028 10.34295081 -12.48046875 6.09375 C-12 4 -12 4 -9.9375 1.4375 C-6.25456163 -0.36478899 -4.05704375 -0.57957768 0 0 Z " fill="#080808" transform="translate(65,136)"/>
<path d="M0 0 C3.44186104 0.0383037 4.63382591 0.2432899 7.6875 2.0625 C10.53206465 5.16566144 11.57909642 7.00223926 12.125 11.1875 C11.64541545 15.18403796 10.28260567 17.21709308 7.75 20.3125 C4.3405957 22.89894464 0.9113551 22.67753115 -3.25 22.3125 C-6.7886994 20.66110695 -8.06070153 19.59644771 -10.25 16.3125 C-10.79593928 12.92192974 -10.80150778 9.70265077 -10.25 6.3125 C-7.8125 3.25 -7.8125 3.25 -5.25 1.3125 C-3.69014791 -0.24735209 -2.16093902 0.06797656 0 0 Z M-6.1875 3.75 C-8.7986366 6.99413941 -8.97982459 9.03314327 -8.73046875 13.1171875 C-7.92421425 16.80104954 -6.34242064 18.2728183 -3.25 20.3125 C1.05274909 21.00401325 2.95945312 20.82807405 6.625 18.4375 C9.13666318 15.92583682 9.67153796 15.01865837 10.0625 11.5 C9.67835642 7.5817355 8.45743683 6.09956733 5.75 3.3125 C1.66061877 1.26780939 -2.18371855 1.7907027 -6.1875 3.75 Z " fill="#E4E4E4" transform="translate(61.25,133.6875)"/>
<path d="M0 0 C0.33 0 0.66 0 1 0 C1.33 8.25 1.66 16.5 2 25 C5.3 25 8.6 25 12 25 C12.99 25.33 13.98 25.66 15 26 C15 19.4 15 12.8 15 6 C15.99 6.33 16.98 6.66 18 7 C17.91935365 10.2926882 17.80649721 13.58349221 17.6875 16.875 C17.66494141 17.81214844 17.64238281 18.74929687 17.61914062 19.71484375 C17.58369141 20.61074219 17.54824219 21.50664062 17.51171875 22.4296875 C17.48553467 23.25710449 17.45935059 24.08452148 17.43237305 24.93701172 C17 27 17 27 14 29 C13.34 28.67 12.68 28.34 12 28 C10.50243129 27.90500497 9.00057068 27.87012802 7.5 27.875 C6.7059375 27.87242187 5.911875 27.86984375 5.09375 27.8671875 C2.94081466 27.86722004 2.94081466 27.86722004 1 29 C-0.38308781 26.23382437 -0.11210196 23.98982 -0.09765625 20.8984375 C-0.09443359 19.68671875 -0.09121094 18.475 -0.08789062 17.2265625 C-0.07951172 15.95554687 -0.07113281 14.68453125 -0.0625 13.375 C-0.05798828 12.09625 -0.05347656 10.8175 -0.04882812 9.5 C-0.03701203 6.33328708 -0.02053815 3.16666644 0 0 Z " fill="#393939" transform="translate(54,107)"/>
<path d="M0 0 C0.33 0 0.66 0 1 0 C1 1.65 1 3.3 1 5 C2.65 5 4.3 5 6 5 C6.5625 6.9375 6.5625 6.9375 7 9 C6 10 6 10 3.4375 10.0625 C2.633125 10.041875 1.82875 10.02125 1 10 C0.67 10.99 0.34 11.98 0 13 C0 12.01 0 11.02 0 10 C-1.65 10 -3.3 10 -5 10 C-5 8.35 -5 6.7 -5 5 C-3.35 5 -1.7 5 0 5 C0 3.35 0 1.7 0 0 Z " fill="#545454" transform="translate(52,15)"/>
<path d="M0 0 C1.20462891 -0.02126953 1.20462891 -0.02126953 2.43359375 -0.04296875 C4.5625 0.1875 4.5625 0.1875 6.5625 2.1875 C3.5625 3.1875 3.5625 3.1875 0.125 3.0625 C-3.31797946 2.98948797 -3.31797946 2.98948797 -5.875 4.125 C-8.43177871 7.4999479 -7.81617678 11.10779358 -7.4375 15.1875 C-7.01299372 18.07836974 -7.01299372 18.07836974 -6.4375 20.1875 C-9.02434612 18.40904329 -10.28508734 16.98732927 -10.87890625 13.87109375 C-11.09767724 9.13576038 -11.02799617 6.92940545 -8 3.125 C-7.154375 2.485625 -6.30875 1.84625 -5.4375 1.1875 C-3.84855928 -0.40144072 -2.18948576 0.01751589 0 0 Z " fill="#D5D5D5" transform="translate(61.4375,133.8125)"/>
<path d="M0 0 C3.3 0.33 6.6 0.66 10 1 C10 1.99 10 2.98 10 4 C6.42355152 5.2380014 3.66305234 4.74926071 0 4 C0 2.68 0 1.36 0 0 Z " fill="#DADADA" transform="translate(47,29)"/>
<path d="M0 0 C0.33 0 0.66 0 1 0 C1.22245393 1.60226955 1.42746669 3.20696767 1.625 4.8125 C1.74101563 5.70582031 1.85703125 6.59914062 1.9765625 7.51953125 C2 10 2 10 0 13 C-0.39387788 15.32387947 -0.73486085 17.65793749 -1 20 C-1.99 20 -2.98 20 -4 20 C-3.25 12.375 -3.25 12.375 -1 9 C-0.54605448 6.72087062 -0.54605448 6.72087062 -0.375 4.3125 C-0.30023438 3.50425781 -0.22546875 2.69601563 -0.1484375 1.86328125 C-0.09945312 1.24839844 -0.05046875 0.63351563 0 0 Z " fill="#4A4A4A" transform="translate(52,127)"/>
<path d="M0 0 C0 1.32 0 2.64 0 4 C-3.63 3.67 -7.26 3.34 -11 3 C-11 2.34 -11 1.68 -11 1 C-7.26562152 0.12132271 -3.83225427 -0.08912219 0 0 Z " fill="#E3E3E3" transform="translate(76,38)"/>
<path d="M0 0 C3.63 0.66 7.26 1.32 11 2 C7.09567131 3.95216435 4.27786748 4.50639991 0 5 C0 3.35 0 1.7 0 0 Z " fill="#DADADA" transform="translate(47,20)"/>
<path d="M0 0 C0 1.32 0 2.64 0 4 C-3.63 3.67 -7.26 3.34 -11 3 C-10.67 2.34 -10.34 1.68 -10 1 C-6.56187949 0.23597322 -3.53471921 0 0 0 Z " fill="#E7E7E7" transform="translate(76,29)"/>
<path d="M0 0 C3.63 0.33 7.26 0.66 11 1 C11 1.66 11 2.32 11 3 C7.37 3.33 3.74 3.66 0 4 C0 2.68 0 1.36 0 0 Z " fill="#E4E4E4" transform="translate(47,38)"/>
<path d="M0 0 C0 1.32 0 2.64 0 4 C-7.42857143 4.28571429 -7.42857143 4.28571429 -11 2 C-7.12315913 0.80712589 -4.08378077 0 0 0 Z " fill="#E6E6E6" transform="translate(76,20)"/>
<path d="M0 0 C1.8125 0.1875 1.8125 0.1875 4 1 C6.92900057 4.66125071 7.32215416 7.3824571 7 12 C6.34 12 5.68 12 5 12 C4.731875 10.7625 4.46375 9.525 4.1875 8.25 C3.36118005 4.89716221 2.37328726 2.58904064 0 0 Z " fill="#DDDDDD" transform="translate(66,136)"/>
<path d="M0 0 C4.20710482 5.15709623 5.12440607 7.28207197 5 14 C4.67 14 4.34 14 4 14 C4 12.02 4 10.04 4 8 C3.34 8 2.68 8 2 8 C0.3125 5.6875 0.3125 5.6875 -1 3 C-0.67 2.01 -0.34 1.02 0 0 Z " fill="#313131" transform="translate(70,134)"/>
<path d="M0 0 C4.875 4.625 4.875 4.625 6 8 C5.01 8 4.02 8 3 8 C0.75 5.6875 0.75 5.6875 -1 3 C-0.67 2.01 -0.34 1.02 0 0 Z " fill="#3D3D3D" transform="translate(155,85)"/>
</svg>
