<?xml version="1.0" standalone="no"?>
<!DOCTYPE svg PUBLIC "-//W3C//DTD SVG 20010904//EN"
 "http://www.w3.org/TR/2001/REC-SVG-20010904/DTD/svg10.dtd">
<svg version="1.0" xmlns="http://www.w3.org/2000/svg"
 width="252.000000pt" height="255.000000pt" viewBox="0 0 252.000000 255.000000"
 preserveAspectRatio="xMidYMid meet">
<metadata>
Created by potrace 1.10, written by Peter Selinger 2001-2011
</metadata>
<g transform="translate(0.000000,255.000000) scale(0.100000,-0.100000)"
fill="#000000" stroke="none">
<path d="M590 2430 c-66 -4 -76 -8 -85 -27 -5 -13 -15 -23 -21 -23 -33 0 -54
-71 -26 -89 10 -6 10 -10 -3 -21 -18 -15 -20 -41 -3 -58 10 -10 10 -17 0 -32
-6 -11 -12 -26 -12 -33 0 -18 32 -47 51 -47 26 0 40 -70 39 -195 -1 -172 -10
-437 -15 -455 -3 -8 -25 -23 -50 -34 -50 -20 -145 -105 -145 -130 0 -9 -4 -16
-10 -16 -5 0 -17 -25 -26 -55 -16 -56 -16 -173 1 -225 17 -55 17 -100 1 -125
-9 -14 -14 -25 -11 -25 2 0 -11 -16 -30 -35 -48 -50 -86 -134 -92 -203 -9
-110 50 -225 159 -307 35 -26 149 -75 202 -85 93 -19 253 -2 292 31 8 6 14 8
14 4 0 -4 8 -1 18 6 15 13 16 12 4 -3 -12 -14 -10 -19 12 -33 23 -15 49 -16
218 -12 106 3 213 9 238 12 70 9 211 45 241 61 16 8 39 14 54 14 14 0 25 4 25
10 0 5 7 6 17 3 11 -4 14 -3 9 5 -5 8 1 12 18 12 13 0 32 7 40 16 9 8 16 13
16 10 0 -4 18 3 40 14 22 11 40 25 40 30 0 6 5 10 12 10 11 0 113 72 133 94 6
6 19 16 30 23 11 6 19 16 17 22 -1 6 1 10 5 9 11 -4 93 86 93 101 0 6 9 16 20
23 11 7 20 17 20 22 0 5 11 24 26 43 14 18 22 33 18 33 -3 0 0 7 7 16 30 37
81 175 104 286 38 181 33 392 -14 558 -7 25 -14 52 -16 60 -10 52 -106 232
-160 300 -82 105 -299 281 -375 305 -14 4 -41 16 -60 26 -19 11 -46 19 -60 19
-20 0 -22 2 -10 11 12 8 12 9 -5 7 -11 -1 -25 1 -32 5 -6 4 -31 11 -55 16 -68
15 -87 20 -96 25 -5 3 -37 8 -73 11 -35 3 -93 10 -129 15 -36 4 -141 6 -235 4
-146 -3 -172 -6 -182 -21 -7 -9 -13 -23 -13 -30 0 -21 -18 -15 -46 16 -30 34
-45 38 -144 31z m118 -47 c-2 -22 -9 -29 -33 -33 -42 -7 -46 -38 -6 -46 43 -9
44 -44 1 -44 -43 0 -42 -35 1 -44 39 -8 37 -39 -4 -44 -19 -2 -27 -9 -27 -23
0 -14 7 -19 30 -19 27 0 30 -3 30 -32 -1 -18 -7 -44 -15 -58 -14 -26 -14 -77
4 -628 5 -186 3 -220 -14 -192 -8 13 -91 13 -117 -1 -20 -11 -20 -10 -14 82 3
52 8 237 12 411 6 283 5 320 -10 343 -9 13 -16 35 -16 49 0 21 5 25 33 28 42
4 43 31 2 38 -43 7 -45 37 -3 48 43 11 43 36 1 40 -47 5 -46 37 2 46 54 10 41
46 -16 46 -10 0 -19 3 -19 8 0 4 -3 17 -6 30 -6 22 -5 22 90 22 l97 0 -3 -27z
m604 7 c524 -75 881 -393 963 -860 30 -171 15 -412 -36 -570 -122 -380 -478
-653 -928 -710 -89 -12 -461 -25 -461 -17 0 3 20 15 44 27 62 30 139 109 172
177 36 72 44 170 20 239 -19 55 -19 57 -7 50 4 -3 48 1 97 8 320 49 494 255
494 585 0 185 -49 320 -151 422 -140 140 -296 184 -632 177 l-167 -3 0 43 c0
23 6 61 13 83 11 39 14 40 45 35 l32 -5 0 170 0 170 215 -6 c118 -3 247 -10
287 -15z m-767 -54 l40 -12 -42 -7 c-23 -4 -48 -10 -57 -13 -12 -5 -16 0 -16
20 0 30 12 32 75 12z m215 -11 c0 -14 -1 -25 -2 -25 -2 1 -28 7 -58 14 l-55
13 45 11 c67 15 70 14 70 -13z m-204 -75 c44 0 25 -17 -31 -27 -54 -9 -55 -9
-55 15 0 22 3 24 31 18 17 -3 42 -6 55 -6z m204 -13 c0 -23 -1 -23 -55 -14
-58 11 -62 22 -10 30 62 9 65 8 65 -16z m-180 -89 c0 -4 -8 -8 -17 -8 -10 0
-35 -3 -55 -6 -35 -6 -38 -5 -38 18 0 24 1 24 55 15 30 -6 55 -14 55 -19z
m177 -14 c-7 -8 -107 8 -107 16 0 4 24 11 53 16 47 8 52 7 55 -9 2 -10 2 -21
-1 -23z m389 -257 c44 -2 89 -9 100 -14 10 -6 37 -14 58 -17 22 -4 55 -20 75
-34 19 -15 32 -20 27 -12 -4 8 1 5 12 -7 11 -13 25 -23 31 -23 14 0 71 -62 71
-77 0 -7 6 -10 14 -7 7 3 21 -7 31 -23 l18 -28 -22 19 c-37 33 -37 7 0 -29 55
-53 78 -146 78 -312 0 -72 -5 -149 -11 -170 -7 -21 -12 -40 -13 -43 -14 -45
-124 -215 -133 -205 -2 2 -14 -6 -27 -18 -22 -22 -82 -58 -89 -54 -1 1 -10 -4
-19 -11 -21 -18 -158 -53 -227 -58 -32 -2 -59 -10 -66 -18 -9 -12 -13 -10 -26
12 -9 15 -28 41 -42 57 -43 49 -44 51 -51 87 -4 23 1 56 15 101 41 126 6 262
-93 359 -43 43 -106 84 -132 87 -6 1 -11 85 -13 223 l-3 223 178 -2 c98 -1
214 -4 259 -6z m-621 -574 c-5 -75 -13 -118 -26 -142 -23 -43 -24 -59 -3 -111
41 -103 190 -106 238 -6 21 45 20 74 -4 121 -16 32 -20 59 -20 142 0 57 3 103
8 103 4 0 30 -13 58 -29 60 -35 109 -88 138 -150 28 -62 29 -185 2 -258 -25
-66 -13 -112 46 -180 95 -110 115 -227 57 -341 -142 -285 -660 -285 -811 0
-19 35 -23 58 -23 128 0 95 11 123 75 200 75 91 83 124 49 223 -48 141 14 303
145 377 80 46 80 46 71 -77z m153 -109 c26 -18 52 -65 52 -94 0 -34 -28 -78
-60 -95 -60 -31 -126 -10 -155 51 -35 74 17 154 99 154 23 0 52 -7 64 -16z"/>
<path d="M442 628 c-15 -15 -16 -55 -1 -63 13 -8 346 -8 359 0 14 9 12 49 -2
63 -17 17 -339 17 -356 0z m336 -32 c3 -3 -66 -6 -154 -6 -87 0 -154 4 -147 8
13 8 292 6 301 -2z"/>
<path d="M460 445 c0 -8 5 -15 10 -15 6 0 10 7 10 15 0 8 -4 15 -10 15 -5 0
-10 -7 -10 -15z"/>
<path d="M536 452 c-3 -6 -1 -14 5 -17 15 -10 25 3 12 16 -7 7 -13 7 -17 1z"/>
<path d="M610 445 c0 -8 5 -15 10 -15 6 0 10 7 10 15 0 8 -4 15 -10 15 -5 0
-10 -7 -10 -15z"/>
<path d="M686 452 c-3 -6 -1 -14 5 -17 15 -10 25 3 12 16 -7 7 -13 7 -17 1z"/>
<path d="M760 445 c0 -8 5 -15 10 -15 6 0 10 7 10 15 0 8 -4 15 -10 15 -5 0
-10 -7 -10 -15z"/>
<path d="M558 1170 c-64 -50 -25 -160 57 -160 37 0 62 16 80 50 22 43 19 68
-14 101 -36 35 -86 39 -123 9z m108 -30 c2 -8 5 -25 8 -36 11 -49 -54 -84 -96
-51 -14 10 -23 43 -19 70 1 4 1 10 0 13 -3 27 102 30 107 4z"/>
<path d="M4 31 l0 -21 1258 0 c838 0 1258 3 1258 10 0 7 -415 9 -1249 8 -1055
-3 -1251 -1 -1258 11 -7 10 -9 8 -9 -8z"/>
</g>
</svg>
